<svg xmlns="http://www.w3.org/2000/svg" xmlns:xlink="http://www.w3.org/1999/xlink" width="16" height="16" viewBox="0 0 16 16">
    <defs>
        <path id="2mpdjk1a0a" d="M2.906.29L2.94.278 2.974.27C3 .266 3.026.263 3.053.263c.053 0 .104.01.15.028.012.004.023.01.033.014l.038.02c.026.017.052.038.076.061L3.307.348l.03.025.013.013 2.527 2.527c.164.164.164.43 0 .595-.165.165-.431.165-.596 0L3.473 1.7v5.721c0 .207-.148.379-.345.414l-.075.007c-.233 0-.421-.188-.421-.42V1.7L.823 3.508c-.144.144-.366.162-.53.054L.23 3.508c-.165-.164-.165-.43 0-.595L2.755.386l.014-.013c.01-.009.02-.018.032-.026l.029-.02c.012-.008.025-.015.038-.021l.026-.012.012-.004z"/>
    </defs>
    <g fill="none" fill-rule="evenodd">
        <g>
            <g transform="translate(-730 -1238) translate(730 1238)">
                <rect width="16" height="16" fill="#EE4136" rx="8"/>
                <g transform="matrix(1 0 0 -1 4.947 12.053)">
                    <use fill="#FFF" fill-rule="nonzero" xlink:href="#2mpdjk1a0a"/>
                </g>
            </g>
        </g>
    </g>
</svg>
