<svg xmlns="http://www.w3.org/2000/svg" width="24" height="24" viewBox="0 0 24 24">
    <g fill="none" fill-rule="evenodd">
        <g fill="#E8E8E8" fill-rule="nonzero">
            <g>
                <path d="M12 24C5.373 24 0 18.627 0 12S5.373 0 12 0s12 5.373 12 12-5.373 12-12 12zm.167-12.673c.983 0 5.76-2.687 5.76-2.687l.008-.48c0-.53-.43-.96-.962-.96H7.361c-.53 0-.961.43-.961.96v.428s4.83 2.739 5.767 2.739zm0 1.32c-.937 0-5.76-2.567-5.76-2.567L6.4 15.84c0 .53.43.96.961.96h9.612c.532 0 .962-.43.962-.96l-.008-5.76s-4.732 2.567-5.76 2.567z" transform="translate(-1300 -2159) translate(1300 2159)"/>
            </g>
        </g>
    </g>
</svg>
