<svg xmlns="http://www.w3.org/2000/svg" width="29" height="46" viewBox="0 0 29 46">
    <g fill="none" fill-rule="evenodd">
        <g fill-rule="nonzero">
            <g>
                <path fill="#FFF" d="M14.317.068V.09c.023.114.023.25.023.385v16.311c-.023.09-.093.114-.162.159-.485.226-.947.43-1.432.633-.67.294-1.362.611-2.032.905L8.29 19.57c-.67.294-1.34.588-1.986.882-.785.362-1.593.702-2.379 1.064-.67.294-1.339.61-2.032.905-.554.248-1.108.475-1.639.724-.046.022-.092.045-.139.045-.023 0-.023 0-.046-.023l.624-1.018c1.2-1.945 2.378-3.868 3.579-5.814 1.27-2.081 2.563-4.163 3.833-6.244 1.178-1.923 2.378-3.846 3.556-5.769.854-1.403 1.732-2.805 2.586-4.208.023-.045.046-.068.046-.113h.024c-.024.023 0 .045 0 .068z" transform="translate(-537 -572) translate(537 572)"/>
                <path fill="#FFF" fill-opacity=".2" d="M28.494 23.166l.024.023-3.395 1.968-10.668 6.176c-.046.023-.092.045-.115.068-.07 0-.07-.068-.07-.09V17.126c0-.068 0-.159.023-.226.024-.091.093-.068.162-.046.3.136.624.272.924.408.9.407 1.8.814 2.701 1.199.785.339 1.547.7 2.333 1.04.785.34 1.57.702 2.355 1.04.67.295 1.362.612 2.032.906.67.294 1.362.61 2.032.905.531.226 1.062.475 1.593.701 0 .068.023.09.07.113z" transform="translate(-537 -572) translate(537 572)"/>
                <path fill="#FFF" d="M14.317 45.45c0 .023-.024.045-.024.068h-.023c0-.045-.046-.068-.069-.113-1.432-1.968-2.863-3.96-4.295-5.928-1.455-2.013-2.932-4.05-4.387-6.063-1.409-1.945-2.84-3.913-4.249-5.859-.37-.52-.739-1.018-1.108-1.538-.023-.046-.047-.068-.093-.136.07 0 .116.045.139.068 2.009 1.154 3.995 2.307 6.004 3.461 2.309 1.335 4.595 2.67 6.904 4.004l1.177.68c.047.044.047.09.047.135v10.904c0 .113 0 .227-.023.317z" transform="translate(-537 -572) translate(537 572)"/>
                <path fill="gray" d="M0.139 23.166L0.278 23.166 0.278 23.305 0 23.305 0 23.166z" transform="translate(-537 -572) translate(537 572)"/>
                <path fill="#FFF" d="M14.433.301c-.14 0-.14-.14-.14-.278h.14V.3z" transform="translate(-537 -572) translate(537 572)"/>
                <path fill="#FFF" fill-opacity=".5" d="M.046 23.211v-.022c.74-.317 1.455-.656 2.194-.973.947-.43 1.893-.837 2.84-1.267.716-.317 1.455-.656 2.17-.973 1.063-.475 2.102-.927 3.164-1.402.716-.317 1.432-.634 2.17-.973.509-.226 1.04-.453 1.548-.679.046-.022.115-.045.138-.09.023 0 .023.022 0 .045v14.366c0 .068-.023.135.023.18-.046.069-.092 0-.115-.022-.208-.113-.416-.226-.624-.362-4.456-2.579-8.936-5.18-13.392-7.76-.023-.022-.07-.045-.116-.068zm28.402 2.67h.023c0 .045-.046.09-.069.136-4.249 5.86-8.497 11.741-12.746 17.6-.439.611-.9 1.222-1.34 1.833-.023-.023-.023-.045-.023-.068V34.071c.97-.566 1.917-1.109 2.887-1.675 3.74-2.171 7.481-4.32 11.199-6.492.023.022.046 0 .07-.023z" transform="translate(-537 -572) translate(537 572)"/>
                <path fill="#FFF" fill-opacity=".5" d="M14.293 16.877V.27c0-.067-.023-.113.024-.18 4.687 7.624 9.375 15.225 14.039 22.849.046.068.115.158.138.249-.323-.113-.623-.272-.923-.407-.37-.159-.762-.34-1.132-.498-.23-.113-.485-.204-.715-.317-.393-.18-.786-.34-1.178-.52-.231-.09-.462-.204-.693-.317l-1.524-.679c-.254-.113-.508-.226-.785-.339l-1.108-.475c-.231-.09-.462-.204-.693-.317l-1.524-.678c-.254-.114-.508-.227-.785-.34l-1.109-.475c-.254-.113-.484-.226-.738-.34-.44-.203-.878-.406-1.34-.587.07-.023.046-.023.046-.023z" transform="translate(-537 -572) translate(537 572)"/>
            </g>
        </g>
    </g>
</svg>
