<svg xmlns="http://www.w3.org/2000/svg" xmlns:xlink="http://www.w3.org/1999/xlink" width="28" height="28" viewBox="0 0 28 28">
    <defs>
        <path id="b7ofcaw35a" d="M14.938 4.556c1.422-1.423 3.352-2.223 5.364-2.223 2.011 0 3.94.8 5.363 2.223 1.423 1.422 2.222 3.351 2.222 5.363 0 2.012-.8 3.941-2.222 5.363L15.35 25.595c-.455.456-1.194.456-1.65 0L3.389 15.282C.426 12.32.426 7.518 3.388 4.556c2.962-2.963 7.765-2.963 10.727 0l.412.411.411-.411zm-.411 18.565l8.251-8.252 1.237-1.237c.985-.985 1.539-2.32 1.539-3.713 0-1.393-.554-2.729-1.539-3.713-.985-.986-2.32-1.54-3.713-1.54-1.393 0-2.729.554-3.714 1.54l-1.237 1.236c-.455.456-1.194.456-1.65 0l-1.236-1.237c-2.051-2.05-5.376-2.05-7.427 0-2.05 2.051-2.05 5.376 0 7.427l9.489 9.489z"/>
    </defs>
    <g fill="none" fill-rule="evenodd">
        <g>
            <g transform="translate(-674 -638) translate(674 638)">
                <mask id="8b7gsvexgb" fill="#fff">
                    <use xlink:href="#b7ofcaw35a"/>
                </mask>
                <use fill="#DEE3EB" fill-rule="nonzero" xlink:href="#b7ofcaw35a"/>
                <g fill="#DEE3EB" mask="url(#8b7gsvexgb)">
                    <path d="M0 0H28V28H0z"/>
                </g>
            </g>
        </g>
    </g>
</svg>
