<svg xmlns="http://www.w3.org/2000/svg" xmlns:xlink="http://www.w3.org/1999/xlink" width="20" height="20" viewBox="0 0 20 20">
    <defs>
        <path id="c1nfpnbvma" d="M10.67 3.254c1.016-1.016 2.394-1.587 3.831-1.587 1.437 0 2.815.57 3.831 1.587 1.016 1.016 1.587 2.394 1.587 3.83 0 1.438-.57 2.816-1.587 3.832l-7.367 7.366c-.325.326-.853.326-1.178 0L2.42 10.916C.304 8.8.304 5.37 2.42 3.254c2.116-2.116 5.546-2.116 7.662 0l.294.294.294-.294zm-.294 13.26l5.894-5.893.884-.884c.703-.703 1.099-1.657 1.099-2.652 0-.995-.396-1.95-1.1-2.652-.703-.704-1.657-1.1-2.652-1.1-.995 0-1.949.396-2.652 1.1l-.884.883c-.325.325-.853.325-1.178 0l-.884-.884c-1.464-1.464-3.84-1.464-5.304 0-1.465 1.465-1.465 3.84 0 5.305l6.777 6.778z"/>
    </defs>
    <g fill="none" fill-rule="evenodd">
        <g>
            <g>
                <g transform="translate(-308 -1181) translate(120 1169) translate(188 12)">
                    <mask id="wghogrhh7b" fill="#fff">
                        <use xlink:href="#c1nfpnbvma"/>
                    </mask>
                    <use fill="#000" fill-rule="nonzero" xlink:href="#c1nfpnbvma"/>
                    <g fill="#DEE3EB" mask="url(#wghogrhh7b)">
                        <path d="M0 0H20V20H0z"/>
                    </g>
                </g>
            </g>
        </g>
    </g>
</svg>
