<svg xmlns="http://www.w3.org/2000/svg" width="8" height="8" viewBox="0 0 8 8">
    <g fill="none" fill-rule="evenodd">
        <g fill="#66A1FF" fill-rule="nonzero">
            <g>
                <path d="M111.644 10.057c.03.014.057.03.084.048.032.021.063.047.092.075l-.074-.062c.024.017.047.036.068.057l.011.01c.02.022.04.045.057.069l.014.018c.036.054.064.115.082.18l.006.024c.01.045.016.091.016.14l-.003-.064.002.025.001.038v3.693c0 .34-.276.615-.615.615-.34 0-.616-.275-.616-.615V12.1l-5.718 5.72c-.214.213-.546.237-.786.071l-.085-.071c-.24-.24-.24-.63 0-.87l5.719-5.72h-2.207c-.309 0-.564-.227-.608-.524l-.007-.09c0-.34.275-.616.615-.616h3.723l.036.004c.025.002.05.006.073.012l.025.006c.025.007.05.016.075.026l.017.008z" transform="translate(-621 -587) translate(517 577)"/>
            </g>
        </g>
    </g>
</svg>
