<svg xmlns="http://www.w3.org/2000/svg" width="74" height="74" viewBox="0 0 74 74">
    <g fill="none" fill-rule="evenodd">
        <g>
            <g transform="translate(-806 -375) translate(806 375)">
                <path fill="#231F20" fill-rule="nonzero" d="M66.667 33.588v3.1c-.008 13.284-8.753 24.982-21.494 28.75-12.74 3.766-26.442-1.295-33.673-12.441-7.232-11.146-6.27-25.72 2.362-35.82 8.632-10.1 22.879-13.319 35.015-7.911 1.681.749 3.652-.007 4.401-1.688.75-1.682-.006-3.653-1.688-4.402C36.757-3.433 19.344.501 8.794 12.846-1.756 25.19-2.931 43.002 5.907 56.625c8.838 13.622 25.584 19.809 41.156 15.204 15.572-4.604 26.261-18.902 26.27-35.14v-3.102c0-1.841-1.492-3.334-3.333-3.334-1.84 0-3.333 1.493-3.333 3.334z"/>
                <rect width="6" height="29" x="34" y="17" fill="#EE4136" rx="3"/>
                <circle cx="37" cy="53" r="3" fill="#EE4136"/>
            </g>
        </g>
    </g>
</svg>
