<svg xmlns="http://www.w3.org/2000/svg" width="54" height="36" viewBox="0 0 54 36">
    <g fill="none" fill-rule="evenodd">
        <g fill="#FFF" fill-rule="nonzero">
            <g>
                <path d="M48.831 6.334C41.748-5.303 31.078 2.793 31.078 2.793c-.692.523-1.968.953-2.835.955l-2.858.002c-.867.001-2.143-.429-2.834-.952 0 0-10.671-8.098-17.755 3.539C-2.286 17.97.568 30.639.568 30.639c.5 3.102 2.148 5.172 5.258 4.912 3.101-.259 9.832-8.354 9.832-8.354.556-.667 1.721-1.212 2.586-1.212l17.134-.003c.866 0 2.03.545 2.585 1.212 0 0 6.732 8.095 9.838 8.354 3.106.26 4.758-1.812 5.255-4.912-.001 0 2.858-12.667-4.225-24.302zM36.499 20C35.115 20 34 18.882 34 17.5c0-1.384 1.115-2.5 2.499-2.5C37.876 15 39 16.116 39 17.5c0 1.382-1.124 2.5-2.501 2.5zm0-8C35.115 12 34 10.882 34 9.5 34 8.116 35.115 7 36.499 7 37.876 7 39 8.116 39 9.5c0 1.383-1.124 2.5-2.501 2.5zM14.5 8c.828 0 1.5.672 1.5 1.5v3h3c.828 0 1.5.672 1.5 1.5s-.672 1.5-1.5 1.5h-3v3c0 .828-.672 1.5-1.5 1.5s-1.5-.672-1.5-1.5v-3.001l-3 .001c-.828 0-1.5-.672-1.5-1.5s.672-1.5 1.5-1.5l3-.001V9.5c0-.828.672-1.5 1.5-1.5zm29.999 3C45.876 11 47 12.117 47 13.5c0 1.382-1.124 2.5-2.501 2.5C43.115 16 42 14.882 42 13.5c0-1.383 1.115-2.5 2.499-2.5z" transform="translate(-1246 -584) translate(1246 584)"/>
            </g>
        </g>
    </g>
</svg>
