<svg xmlns="http://www.w3.org/2000/svg" xmlns:xlink="http://www.w3.org/1999/xlink" width="50" height="48" viewBox="0 0 50 48">
    <defs>
        <path id="utrf44x60a" d="M43.243 21.787v2.01c-.005 8.617-5.677 16.205-13.942 18.649-8.264 2.443-17.151-.84-21.842-8.07-4.69-7.23-4.067-16.683 1.532-23.234 5.6-6.551 14.841-8.64 22.713-5.132 1.09.486 2.369-.004 2.855-1.095.486-1.09-.004-2.369-1.095-2.855C23.843-2.227 12.548.325 5.704 8.332-1.139 16.34-1.9 27.894 3.832 36.73c5.733 8.836 16.595 12.85 26.695 9.863 10.101-2.987 17.035-12.261 17.04-22.794v-2.012c0-1.195-.967-2.163-2.161-2.163-1.195 0-2.163.968-2.163 2.163z"/>
        <path id="e7a1diwtnb" d="M23.135 25.28l-4.957-4.957c-.845-.845-2.214-.845-3.058 0-.844.844-.844 2.213 0 3.057l6.486 6.487c.845.844 2.214.844 3.058 0L48.448 6.083c.844-.844.844-2.213 0-3.058-.844-.844-2.213-.844-3.058 0L23.135 25.28z"/>
    </defs>
    <g fill="none" fill-rule="evenodd">
        <g>
            <g transform="translate(-2605 -113) translate(2605 113)">
                <use fill="#231F20" fill-rule="nonzero" xlink:href="#utrf44x60a"/>
                <use fill="#00B2E3" fill-rule="nonzero" xlink:href="#e7a1diwtnb"/>
            </g>
        </g>
    </g>
</svg>
