<svg xmlns="http://www.w3.org/2000/svg" xmlns:xlink="http://www.w3.org/1999/xlink" width="14" height="14" viewBox="0 0 14 14">
    <defs>
        <path id="yl1hu36nga" d="M2.333 4.992C2.333 2.419 4.423.333 7 .333s4.667 2.086 4.667 4.659v4.675h.666c.737 0 1.334.597 1.334 1.333v1.333c0 .737-.597 1.334-1.334 1.334H1.667c-.737 0-1.334-.597-1.334-1.334V11c0-.736.597-1.333 1.334-1.333h.666V4.992zm10 6.008H1.667v1.333h10.666V11zM7 3c.653 0 1.256.38 1.583.998C8.82 4.443 8.526 5 8.056 5H5.944c-.47 0-.763-.557-.527-1.002C5.744 3.38 6.347 3 7 3zm3.333 6.667V5.088c0-1.89-1.492-3.421-3.333-3.421-1.84 0-3.333 1.532-3.333 3.421v4.579h6.666z"/>
    </defs>
    <g fill="none" fill-rule="evenodd">
        <g>
            <g transform="translate(-1213 -203) translate(1213 203)">
                <use fill="#B2B2B2" xlink:href="#yl1hu36nga"/>
            </g>
        </g>
    </g>
</svg>
