<svg xmlns="http://www.w3.org/2000/svg" xmlns:xlink="http://www.w3.org/1999/xlink" width="16" height="14" viewBox="0 0 16 14">
    <defs>
        <path id="h2vh2iq04a" d="M3.956 2.282C6.057.184 9.292-.27 11.89 1.166c2.599 1.436 3.934 4.418 3.275 7.313-.659 2.896-3.153 5.006-6.117 5.177-2.965.17-5.684-1.64-6.671-4.44-.122-.348.06-.728.407-.85.347-.123.728.06.85.406.79 2.24 2.966 3.69 5.337 3.553 2.372-.137 4.367-1.825 4.894-4.141.527-2.317-.541-4.702-2.62-5.851-2.079-1.15-4.667-.786-6.363.907L3.017 4.993h2.316c.335 0 .612.248.66.57L6 5.66c0 .368-.298.666-.667.666H1.325c-.017 0-.035 0-.053-.003-.017-.001-.033-.003-.05-.006l-.048-.01-.043-.012c-.02-.007-.041-.014-.061-.023l-.028-.013c-.017-.008-.035-.017-.051-.027l-.046-.03c-.034-.025-.067-.054-.098-.086l.068.063-.05-.044-.018-.019-.008-.01c-.016-.017-.03-.035-.044-.053l-.018-.025c-.036-.055-.065-.116-.084-.18-.005-.019-.01-.037-.013-.055-.009-.043-.013-.087-.013-.133l.006.094C.67 5.728.667 5.7.667 5.672V1.661c0-.369.298-.667.666-.667.369 0 .667.298.667.667v2.457z"/>
    </defs>
    <g fill="none" fill-rule="evenodd">
        <g>
            <g transform="translate(-1156 -203) translate(1156 203)">
                <use fill="#B2B2B2" fill-rule="nonzero" xlink:href="#h2vh2iq04a"/>
            </g>
        </g>
    </g>
</svg>
