<svg xmlns="http://www.w3.org/2000/svg" xmlns:xlink="http://www.w3.org/1999/xlink" width="14" height="16" viewBox="0 0 14 16">
    <defs>
        <path id="jf2sxnivla" d="M11 .667c1.473 0 2.667 1.194 2.667 2.666C13.667 4.806 12.473 6 11 6c-.74 0-1.411-.302-1.894-.79L5.567 7.276c.065.23.1.473.1.724s-.035.494-.1.725l3.54 2.063C9.592 10.3 10.26 10 11 10c1.473 0 2.667 1.194 2.667 2.667 0 1.472-1.194 2.666-2.667 2.666-1.473 0-2.667-1.194-2.667-2.666 0-.253.035-.497.1-.728L4.895 9.877c-.483.488-1.153.79-1.894.79C1.527 10.667.333 9.473.333 8 .333 6.527 1.527 5.333 3 5.333c.74 0 1.411.302 1.894.79l3.539-2.065c-.065-.23-.1-.474-.1-.725C8.333 1.861 9.527.667 11 .667zm0 10.666c-.468 0-.88.241-1.117.606l-.027.057c-.011.019-.023.038-.036.055-.099.183-.153.393-.153.616 0 .736.597 1.333 1.333 1.333s1.333-.597 1.333-1.333c0-.737-.597-1.334-1.333-1.334zM3 6.667c-.736 0-1.333.597-1.333 1.333S2.264 9.333 3 9.333 4.333 8.736 4.333 8c0-.243-.065-.47-.178-.666l-.009-.012c-.23-.393-.658-.655-1.146-.655zM11 2c-.736 0-1.333.597-1.333 1.333 0 .737.597 1.334 1.333 1.334s1.333-.597 1.333-1.334C12.333 2.597 11.736 2 11 2z"/>
    </defs>
    <g fill="none" fill-rule="evenodd">
        <g>
            <g transform="translate(-1241 -202) translate(1241 202)">
                <use fill="#B2B2B2" fill-rule="nonzero" xlink:href="#jf2sxnivla"/>
            </g>
        </g>
    </g>
</svg>
