<svg xmlns="http://www.w3.org/2000/svg" width="48" height="48" viewBox="0 0 48 48">
    <g fill="none" fill-rule="evenodd">
        <g fill-rule="nonzero">
            <g>
                <g>
                    <path fill="#3B5998" d="M0 24C0 10.745 10.745 0 24 0s24 10.745 24 24-10.745 24-24 24S0 37.255 0 24z" transform="translate(-1425 -118) translate(1425 118)"/>
                    <path fill="#FFF" d="M26.502 38.111V25.054h3.604l.478-4.5h-4.082l.006-2.251c0-1.174.111-1.803 1.797-1.803h2.253V12h-3.605c-4.33 0-5.854 2.183-5.854 5.854v2.701H18.4v4.5h2.7V38.11h5.402z" transform="translate(-1425 -118) translate(1425 118)"/>
                </g>
            </g>
        </g>
    </g>
</svg>
