<svg xmlns="http://www.w3.org/2000/svg" xmlns:xlink="http://www.w3.org/1999/xlink" width="16" height="16" viewBox="0 0 16 16">
    <defs>
        <path id="yzs85xfqka" d="M8 0c1.105 0 2 .895 2 2v.057c0 .173.104.329.27.4.161.071.35.037.472-.082l.04-.04c.375-.375.884-.586 1.415-.586.53 0 1.04.211 1.414.586.376.375.587.884.587 1.415 0 .53-.211 1.04-.587 1.415l-.034.035c-.124.126-.159.315-.087.477.019.043.033.088.043.133.079.117.211.19.354.19H14c1.105 0 2 .895 2 2s-.895 2-2 2h-.057c-.173 0-.329.104-.397.263-.074.168-.04.358.079.479l.04.04c.375.375.586.884.586 1.415 0 .53-.211 1.04-.586 1.414-.375.376-.884.587-1.415.587-.53 0-1.04-.211-1.415-.587l-.035-.034c-.126-.124-.315-.159-.484-.084-.159.068-.262.224-.263.394V14c0 1.105-.895 2-2 2-1.104 0-2-.895-2-2-.004-.222-.116-.38-.322-.457-.162-.071-.352-.037-.473.082l-.04.04c-.375.375-.884.586-1.415.586-.53 0-1.04-.211-1.414-.586-.376-.375-.587-.884-.587-1.415 0-.53.211-1.04.587-1.415l.034-.035c.124-.126.159-.315.084-.484-.068-.159-.224-.262-.394-.263H2c-1.105 0-2-.895-2-2 0-1.104.895-2 2-2 .222-.004.38-.116.457-.322.071-.162.037-.352-.082-.473l-.04-.04c-.375-.375-.586-.884-.586-1.415 0-.53.211-1.04.586-1.414.375-.376.884-.587 1.415-.587.53 0 1.04.211 1.415.587l.035.034c.126.124.315.159.477.087.043-.019.088-.033.133-.043.117-.079.19-.211.19-.354V2c0-1.105.895-2 2-2zm0 1.333c-.368 0-.667.299-.667.667v.116c-.002.704-.423 1.34-1.07 1.617-.057.024-.116.04-.176.048-.63.22-1.337.068-1.825-.41l-.04-.04c-.125-.125-.295-.195-.472-.195s-.347.07-.472.196c-.125.125-.196.294-.196.471s.07.347.196.472l.045.045c.505.517.645 1.288.37 1.91-.251.681-.892 1.14-1.633 1.157H2c-.368 0-.667.298-.667.666 0 .369.299.667.667.667h.116c.704.003 1.34.424 1.614 1.064.292.66.152 1.433-.359 1.954l-.04.04c-.125.125-.195.295-.195.472s.07.347.196.472c.125.125.294.196.471.196s.347-.07.472-.196l.045-.045c.517-.505 1.288-.645 1.91-.37.681.251 1.14.892 1.157 1.633V14c0 .368.298.667.666.667.369 0 .667-.299.667-.667v-.116c.003-.704.424-1.34 1.064-1.614.66-.292 1.433-.152 1.954.359l.04.04c.125.125.295.195.472.195s.347-.07.472-.196c.125-.125.196-.294.196-.471s-.07-.347-.196-.472l-.045-.045c-.505-.517-.645-1.288-.354-1.95.275-.64.91-1.06 1.617-1.063H14c.368 0 .667-.299.667-.667 0-.368-.299-.667-.667-.667h-.116c-.704-.002-1.34-.423-1.617-1.07-.024-.057-.04-.116-.048-.176-.22-.63-.068-1.337.41-1.825l.04-.04c.125-.125.195-.295.195-.472s-.07-.347-.196-.472c-.125-.125-.294-.196-.471-.196s-.347.07-.472.196l-.045.045c-.517.505-1.288.645-1.943.356-.647-.277-1.068-.912-1.07-1.619V2c0-.368-.299-.667-.667-.667zm0 4c1.473 0 2.667 1.194 2.667 2.667 0 1.473-1.194 2.667-2.667 2.667-1.473 0-2.667-1.194-2.667-2.667 0-1.473 1.194-2.667 2.667-2.667zm0 4c.736 0 1.333-.597 1.333-1.333S8.736 6.667 8 6.667 6.667 7.264 6.667 8 7.264 9.333 8 9.333z"/>
    </defs>
    <g fill="none" fill-rule="evenodd">
        <g>
            <g transform="translate(-406 -432) translate(406 432)">
                <mask id="h68yrb1pzb" fill="#fff">
                    <use xlink:href="#yzs85xfqka"/>
                </mask>
                <use fill="#000" fill-rule="nonzero" xlink:href="#yzs85xfqka"/>
                <g fill="#333" mask="url(#h68yrb1pzb)">
                    <path d="M0 0H16V16H0z"/>
                </g>
            </g>
        </g>
    </g>
</svg>
