<svg xmlns="http://www.w3.org/2000/svg" width="28" height="20" viewBox="0 0 28 20">
    <g fill="none" fill-rule="evenodd">
        <g fill="#FFF" fill-rule="nonzero">
            <path d="M546.523 2623s-.857-1.024-1.571-1.929c3.119-.88 4.31-2.833 4.31-2.833-.977.643-1.905 1.095-2.739 1.405-1.19.5-2.333.833-3.452 1.024-2.286.428-4.38.31-6.167-.024-1.357-.262-2.523-.643-3.5-1.024-.547-.214-1.142-.476-1.738-.81-.07-.047-.142-.07-.214-.119-.047-.023-.071-.047-.095-.07-.429-.239-.667-.406-.667-.406s1.143 1.905 4.167 2.81c-.714.905-1.595 1.976-1.595 1.976-5.262-.167-7.262-3.619-7.262-3.619 0-7.666 3.428-13.88 3.428-13.88 3.429-2.572 6.69-2.5 6.69-2.5l.239.285c-4.286 1.238-6.262 3.12-6.262 3.12s.524-.287 1.405-.691c2.547-1.12 4.571-1.429 5.404-1.5.143-.024.262-.048.405-.048 1.596-.208 3.21-.224 4.81-.048 2.261.262 4.69.929 7.166 2.286 0 0-1.88-1.786-5.928-3.024l.333-.38s3.262-.072 6.69 2.5c0 0 3.429 6.214 3.429 13.88 0 0-2.024 3.452-7.286 3.619zm-11.071-11.119c-1.357 0-2.428 1.19-2.428 2.643 0 1.452 1.095 2.643 2.428 2.643 1.357 0 2.429-1.19 2.429-2.643.023-1.452-1.072-2.643-2.429-2.643m8.69 0c-1.357 0-2.428 1.19-2.428 2.643 0 1.452 1.095 2.643 2.428 2.643 1.357 0 2.429-1.19 2.429-2.643 0-1.452-1.072-2.643-2.429-2.643" transform="translate(-526 -2603)"/>
        </g>
    </g>
</svg>
