<svg xmlns="http://www.w3.org/2000/svg" width="48" height="48" viewBox="0 0 48 48">
    <g fill="none" fill-rule="evenodd">
        <g fill-rule="nonzero">
            <g>
                <g>
                    <path fill="#FFE812" d="M0 24C0 10.745 10.745 0 24 0s24 10.745 24 24-10.745 24-24 24S0 37.255 0 24z" transform="translate(-1733 -118) translate(1733 118)"/>
                    <path fill="#000" d="M24 13.098c-7.071 0-12.803 4.52-12.803 10.095 0 3.605 2.396 6.767 6.001 8.553-.196.677-1.26 4.351-1.302 4.64 0 0-.026.217.115.3.14.082.305.018.305.018.403-.056 4.671-3.054 5.41-3.575.738.105 1.498.159 2.274.159 7.071 0 12.803-4.52 12.803-10.095 0-5.575-5.732-10.095-12.803-10.095z" transform="translate(-1733 -118) translate(1733 118)"/>
                    <path fill="#FFE812" d="M16.921 26.717c-.407 0-.738-.316-.738-.705v-4.388H15.03c-.4 0-.725-.325-.725-.724 0-.398.326-.723.725-.723h3.783c.4 0 .724.325.724.723 0 .4-.325.724-.724.724H17.66v4.388c0 .389-.331.705-.739.705zm6.477-.01c-.308 0-.543-.125-.614-.326l-.366-.957h-2.253l-.366.958c-.07.2-.306.325-.614.325-.162 0-.322-.034-.47-.101-.203-.094-.399-.353-.174-1.05l1.766-4.65c.125-.353.503-.718.984-.729.483.011.86.376.985.73l1.766 4.648c.225.699.03.957-.174 1.05-.148.068-.308.103-.47.102zm-1.369-2.592l-.737-2.096-.738 2.096h1.475zm3.202 2.494c-.39 0-.708-.303-.708-.677v-5.016c0-.408.338-.739.754-.739s.754.331.754.739v4.34h1.57c.39 0 .708.303.708.676 0 .374-.318.677-.708.677h-2.37zm4.104.098c-.408 0-.739-.33-.739-.738v-5.053c0-.408.331-.739.739-.739.407 0 .738.331.738.739v1.587l2.061-2.06c.106-.106.252-.165.41-.165.184 0 .37.08.508.218.13.13.207.296.217.469.011.174-.047.333-.163.45l-1.683 1.682 1.818 2.409c.119.156.17.353.142.547-.027.194-.13.37-.287.487-.127.097-.283.15-.444.15-.232 0-.45-.108-.59-.294L30.33 24.1l-.256.256v1.611c0 .408-.331.739-.74.74z" transform="translate(-1733 -118) translate(1733 118)"/>
                </g>
            </g>
        </g>
    </g>
</svg>
