<svg xmlns="http://www.w3.org/2000/svg" width="60" height="60" viewBox="0 0 60 60">
    <g fill="none" fill-rule="evenodd">
        <g>
            <g transform="translate(-140 -40) translate(140 40)">
                <circle cx="30" cy="30" r="29.5" fill="#FFF" stroke="#DEE3EB"/>
                <g fill="#3E3756" fill-rule="nonzero">
                    <path d="M13.882 21.165c-2.123 0-4.042-.869-5.423-2.27l-4.018 4.001 9.05 3.742 9.05-3.745-3.637-3.62c-1.34 1.178-3.098 1.892-5.022 1.892zM13.882 5.943c1.764 0 3.388.6 4.679 1.608l3.978-3.97L13.91.024l-2.651 6.382c.818-.3 1.701-.464 2.624-.464zM6.27 13.554c0-2.797 1.509-5.24 3.757-6.564L12.654.671.049 13.237c-.002 3.382 1.282 6.638 3.594 9.107l2.866-6.893c-.156-.607-.239-1.242-.239-1.897zM23.32 4.095l-4.076 4.058c1.39 1.38 2.25 3.29 2.25 5.402 0 1.95-.735 3.73-1.942 5.077l3.768 3.752.246-.268c4.594-5.143 4.512-12.975-.246-18.021zM7.868 18.22c-.354-.456-.657-.952-.901-1.482l-1.69 4.067 2.591-2.585zM14.172 7.913c-1.796 0-3.252 1.455-3.252 3.252V12.4c-.468.11-.818.53-.818 1.031v4.22c0 .586.475 1.06 1.06 1.06h6.018c.586 0 1.06-.474 1.06-1.06v-4.22c0-.502-.348-.921-.817-1.03v-1.235c.002-1.797-1.455-3.252-3.25-3.252zm.33 8.039v.66c0 .193-.158.35-.35.35-.194 0-.35-.158-.35-.35v-.683c-.225-.128-.376-.37-.376-.647 0-.412.334-.747.747-.747.412 0 .747.335.747.747 0 .294-.171.548-.419.67zm1.65-3.583h-3.96v-1.204c0-1.094.887-1.98 1.98-1.98 1.094 0 1.98.887 1.98 1.98v1.204z" transform="translate(17 17)"/>
                </g>
            </g>
        </g>
    </g>
</svg>
