<svg xmlns="http://www.w3.org/2000/svg" width="60" height="60" viewBox="0 0 60 60">
    <g fill="none" fill-rule="evenodd">
        <g>
            <g transform="translate(-440 -40) translate(440 40)">
                <circle cx="30" cy="30" r="30" fill="#000"/>
                <g fill="#FFF" fill-rule="nonzero">
                    <path d="M4.46 23.936l6.884.017c.357.001.692-.168.904-.455l4.76-6.451-3.737-5.053-8.81 11.942zM10.635 0H0l4.259 5.348c.128.16.321.254.526.254h3.758l4.728 6.392 3.455-4.685-5.383-6.96c-.17-.22-.431-.349-.708-.349zM31.403 0h-6.9c-.357 0-.691.17-.903.456l-5.055 6.853-2.307 3.128-1.148 1.557 3.415 4.617.322.434 4.772 6.454c.212.287.548.455.904.454l6.9-.017-8.985-11.62c-.03-.04-.032-.095-.002-.135L31.403 0z" transform="translate(14 18)"/>
                </g>
            </g>
        </g>
    </g>
</svg>
