<svg xmlns="http://www.w3.org/2000/svg" width="60" height="60" viewBox="0 0 60 60">
    <g fill="none" fill-rule="evenodd">
        <g>
            <g>
                <path fill="#1BA27A" d="M30.096 59.84C13.609 59.84.245 46.476.245 29.99.245 13.503 13.609.139 30.095.139c16.487 0 29.851 13.364 29.851 29.85 0 16.487-13.364 29.851-29.85 29.851z" transform="translate(-340 -40) translate(340 40)"/>
                <g fill="#FFF">
                    <path d="M32.1 0L3.834 0 3.834 6.824 14.555 6.824 14.555 16.853 21.379 16.853 21.379 6.824 32.1 6.824z" transform="translate(-340 -40) translate(340 40) translate(12.006 15.191)"/>
                    <path d="M18.032 17.922c-8.87 0-16.06-1.403-16.06-3.135 0-1.731 7.19-3.135 16.06-3.135 8.868 0 16.058 1.404 16.058 3.135 0 1.732-7.19 3.135-16.058 3.135m18.031-2.612c0-2.233-8.073-4.043-18.031-4.043C8.073 11.267 0 13.077 0 15.31c0 1.966 6.26 3.604 14.555 3.967v14.398h6.824V19.283c8.359-.352 14.684-1.997 14.684-3.973" transform="translate(-340 -40) translate(340 40) translate(12.006 15.191)"/>
                </g>
            </g>
        </g>
    </g>
</svg>
