<svg xmlns="http://www.w3.org/2000/svg" width="60" height="60" viewBox="0 0 60 60">
    <g fill="none" fill-rule="evenodd">
        <g>
            <g transform="translate(-240 -40) translate(240 40)">
                <circle cx="30" cy="30" r="29.5" fill="#FFF" stroke="#DEE3EB"/>
                <g fill-rule="nonzero">
                    <path fill="#8A92B2" d="M12.315.06v.02c.02.099.02.218.02.337V14.74c-.02.08-.08.099-.139.139-.417.198-.814.377-1.231.556-.576.258-1.172.536-1.748.794l-2.086.954c-.576.258-1.152.516-1.708.774-.676.318-1.37.616-2.046.934-.576.258-1.152.536-1.748.795-.477.218-.954.417-1.41.635-.04.02-.08.04-.12.04-.02 0-.02 0-.04-.02l.537-.894c1.033-1.708 2.046-3.396 3.079-5.105 1.092-1.827 2.205-3.655 3.297-5.482 1.013-1.688 2.046-3.377 3.059-5.065.735-1.232 1.49-2.463 2.225-3.695.02-.04.04-.06.04-.099h.02c-.02.02 0 .04 0 .06z" transform="translate(17 10)"/>
                    <path fill="#454A75" d="M24.511 20.34l.02.02-2.92 1.728-9.177 5.423c-.04.02-.079.04-.099.06-.06 0-.06-.06-.06-.08V15.037c0-.06 0-.14.02-.2.02-.079.08-.059.14-.039.258.12.536.239.794.358.775.357 1.55.715 2.324 1.052.675.298 1.33.616 2.006.914.676.298 1.35.616 2.026.914.576.258 1.172.536 1.748.794.576.259 1.172.537 1.748.795.457.199.914.417 1.37.616 0 .06.02.08.06.1z" transform="translate(17 10)"/>
                    <path fill="#8A92B2" d="M12.315 39.905c0 .02-.02.04-.02.06h-.02c0-.04-.04-.06-.059-.1-1.232-1.727-2.463-3.475-3.695-5.203C7.27 32.894 6 31.106 4.747 29.338c-1.211-1.708-2.443-3.436-3.655-5.144-.317-.457-.635-.894-.953-1.351-.02-.04-.04-.06-.08-.12.06 0 .1.04.12.06 1.728 1.013 3.436 2.026 5.164 3.04 1.987 1.171 3.953 2.343 5.94 3.515l1.012.596c.04.04.04.08.04.12v9.573c0 .1 0 .199-.02.278z" transform="translate(17 10)"/>
                    <path fill="gray" d="M0.087 20.34L0.174 20.34 0.174 20.427 0 20.427 0 20.34z" transform="translate(17 10)"/>
                    <path fill="#FFF" d="M12.382.194c-.087 0-.087-.087-.087-.174h.087v.174z" transform="translate(17 10)"/>
                    <path fill="#62688F" d="M.04 20.38v-.02c.635-.278 1.251-.576 1.887-.854.814-.378 1.629-.735 2.443-1.113.616-.278 1.251-.576 1.867-.854.914-.417 1.808-.814 2.721-1.231.616-.278 1.232-.556 1.868-.854.437-.199.893-.398 1.33-.596.04-.02.1-.04.12-.08.02 0 .02.02 0 .04v12.613c0 .06-.02.12.02.16-.04.059-.08 0-.1-.02-.179-.1-.357-.2-.536-.318-3.834-2.265-7.687-4.55-11.521-6.814-.02-.02-.06-.04-.1-.06zm24.432 2.344h.02c0 .04-.04.08-.06.119-3.655 5.144-7.31 10.309-10.965 15.454-.377.536-.774 1.072-1.152 1.608-.02-.02-.02-.04-.02-.06V29.915c.835-.496 1.65-.973 2.483-1.47 3.218-1.907 6.436-3.794 9.634-5.7.02.02.04 0 .06-.02z" transform="translate(17 10)"/>
                    <path fill="#62688F" d="M12.295 14.818V.24c0-.06-.02-.1.02-.16 4.033 6.694 8.065 13.368 12.077 20.062.04.06.1.14.12.219-.279-.1-.537-.238-.795-.358-.318-.139-.656-.298-.973-.437-.2-.099-.418-.178-.616-.278-.338-.159-.676-.298-1.013-.457-.199-.079-.398-.178-.596-.278l-1.311-.596c-.219-.099-.437-.198-.676-.297l-.953-.418c-.199-.08-.397-.178-.596-.278l-1.31-.596c-.22-.099-.438-.198-.676-.298l-.954-.417c-.218-.099-.417-.198-.635-.298-.378-.178-.755-.357-1.152-.516.06-.02.04-.02.04-.02z" transform="translate(17 10)"/>
                </g>
            </g>
        </g>
    </g>
</svg>
