<svg xmlns="http://www.w3.org/2000/svg" xmlns:xlink="http://www.w3.org/1999/xlink" width="22" height="22" viewBox="0 0 22 22">
    <defs>
        <path id="xvmjskl6ka" d="M11 0c6.075 0 11 4.925 11 11s-4.925 11-11 11S0 17.075 0 11 4.925 0 11 0zM6.053 12.001H2.055c.413 3.736 3.114 6.783 6.671 7.71-1.52-2.288-2.444-4.934-2.673-7.71zm13.892 0H15.95c-.224 2.763-1.15 5.414-2.675 7.709 3.556-.926 6.257-3.973 6.67-7.71zm-6 0H8.058c.251 2.713 1.272 5.297 2.942 7.448 1.676-2.159 2.699-4.751 2.945-7.449zm-5.22-9.71l-.036.008C5.15 3.237 2.466 6.276 2.055 10H6.05C6.274 7.237 7.2 4.585 8.725 2.29zM11 2.55C9.324 4.71 8.3 7.303 8.055 10h5.887C13.692 7.286 12.67 4.701 11 2.55zm2.274-.261l.189.29c1.408 2.22 2.265 4.76 2.484 7.42h3.998c-.413-3.737-3.114-6.784-6.671-7.71z"/>
    </defs>
    <g fill="none" fill-rule="evenodd">
        <g>
            <g transform="translate(-471 -2602) translate(471 2602)">
                <use fill="#FFF" fill-rule="nonzero" xlink:href="#xvmjskl6ka"/>
            </g>
        </g>
    </g>
</svg>
