<svg xmlns="http://www.w3.org/2000/svg" xmlns:xlink="http://www.w3.org/1999/xlink" width="464" height="238" viewBox="0 0 464 238">
    <defs>
        <filter id="o45gaydnia" width="117.5%" height="123.3%" x="-8.8%" y="-8.3%" filterUnits="objectBoundingBox">
            <feOffset dy="2" in="SourceAlpha" result="shadowOffsetOuter1"/>
            <feGaussianBlur in="shadowOffsetOuter1" result="shadowBlurOuter1" stdDeviation="2"/>
            <feComposite in="shadowBlurOuter1" in2="SourceAlpha" operator="out" result="shadowBlurOuter1"/>
            <feColorMatrix in="shadowBlurOuter1" values="0 0 0 0 0 0 0 0 0 0 0 0 0 0 0 0 0 0 0.1 0"/>
        </filter>
        <filter id="e513bfljyc" width="117.5%" height="123.3%" x="-8.8%" y="-8.3%" filterUnits="objectBoundingBox">
            <feOffset dy="2" in="SourceAlpha" result="shadowOffsetOuter1"/>
            <feGaussianBlur in="shadowOffsetOuter1" result="shadowBlurOuter1" stdDeviation="2"/>
            <feComposite in="shadowBlurOuter1" in2="SourceAlpha" operator="out" result="shadowBlurOuter1"/>
            <feColorMatrix in="shadowBlurOuter1" values="0 0 0 0 0 0 0 0 0 0 0 0 0 0 0 0 0 0 0.1 0"/>
        </filter>
        <filter id="cob0y1znje" width="129.1%" height="143.3%" x="-15.1%" y="-21.7%" filterUnits="objectBoundingBox">
            <feOffset dy="2" in="SourceAlpha" result="shadowOffsetOuter1"/>
            <feGaussianBlur in="shadowOffsetOuter1" result="shadowBlurOuter1" stdDeviation="2"/>
            <feColorMatrix in="shadowBlurOuter1" result="shadowMatrixOuter1" values="0 0 0 0 0 0 0 0 0 0 0 0 0 0 0 0 0 0 0.1 0"/>
            <feMerge>
                <feMergeNode in="shadowMatrixOuter1"/>
                <feMergeNode in="SourceGraphic"/>
            </feMerge>
        </filter>
        <rect id="jme2aylq6b" width="80" height="60" x="178.299" y="104.107" rx="4"/>
        <rect id="zsk8qpctgd" width="80" height="60" x="0" y="0" rx="4"/>
    </defs>
    <g fill="none" fill-rule="evenodd">
        <g>
            <g transform="translate(-121 -1100) translate(121 1100)">
                <path fill="#E2EFF3" d="M0 0H464V238H0z"/>
                <g>
                    <use fill="#000" filter="url(#o45gaydnia)" xlink:href="#jme2aylq6b"/>
                    <rect width="79" height="59" x="178.799" y="104.607" fill="#FFF" stroke="#6F6558" stroke-linejoin="square" stroke-opacity=".5" rx="4"/>
                </g>
                <g transform="rotate(15 -138.278 1121.405)">
                    <g>
                        <use fill="#000" filter="url(#e513bfljyc)" xlink:href="#zsk8qpctgd"/>
                        <rect width="79" height="59" x=".5" y=".5" fill="#FFF" stroke="#0055DA" stroke-linejoin="square" stroke-opacity=".5" rx="4"/>
                    </g>
                    <rect width="20" height="10" x="66" y="25" fill="#DEE3EB" rx="5"/>
                    <g fill="#0055DA">
                        <path d="M39.526 4.447l-.051-.249C38.93 1.598 36.71 0 33.642 0H6.048C2.98 0 .738 1.617.194 4.218l-.051.248C.046 5.032-.003 5.597 0 6.286v7.279c.004.904.096 1.55.097 1.557l.003.027c.362 2.994 2.585 4.781 5.948 4.781H25.996c.174 0 .315-.14.315-.315V7.828v-.003c0-.174-.14-.315-.315-.315h-.001-1.148-.004c-.173 0-.314.14-.314.315v10.332H6.493c-2.986 0-4.7-1.823-4.703-4.53l.002-7.357c0-2.73 1.714-4.49 4.701-4.49h26.705c2.988 0 4.682 1.74 4.682 4.471l.002 7.358c-.003 2.707-1.699 4.538-4.685 4.538l-.611.008c-.253.003-.474.004-.73.005h-.342c-.174 0-.315.14-.315.315V19.608l-.001.003c0 .174.141.315.315.315h.23l.57-.001.324-.004h1.005c3.363 0 5.564-1.796 5.926-4.79l.004-.027c0-.007.092-.653.096-1.558V6.268c.003-.69-.045-1.254-.142-1.821" transform="rotate(1 -1118.387 879.415)"/>
                        <path d="M16.51 12.89c0 1.194.745 2.004 1.858 2.004h.496c.176 0 .319-.142.319-.318v-.996-.002c0-.08-.031-.162-.093-.224-.062-.061-.143-.092-.224-.091h-.574V5.297v-.003c0-.174-.14-.315-.314-.315h-.002H16.825c-.175 0-.316.141-.316.315v7.596M20.52 8.47l-.001.002V12.9c0 1.192.748 1.994 1.861 1.994h.482c.174 0 .315-.142.315-.316v-.998-.003c0-.041-.008-.082-.024-.121-.016-.038-.038-.072-.068-.102-.062-.062-.143-.092-.224-.092h-.559v-4.79-.002c0-.174-.141-.315-.315-.315H20.836h-.002c-.174 0-.315.14-.315.315M20.835 6.727h1.151c.13 0 .243-.08.29-.192.017-.037.026-.079.026-.123V5.295c0-.044-.01-.086-.026-.123-.047-.113-.16-.192-.29-.192H20.837h-.002c-.174 0-.315.14-.315.311v1.121c0 .038.009.073.02.107.044.12.158.208.295.208M15.143 5.43c.006-.012.009-.025.014-.038.006-.021.01-.043.012-.064.001-.012-.003-.088-.007-.104-.01-.037-.026-.07-.045-.102-.007-.012-.013-.022-.02-.031-.014-.015-.029-.027-.045-.04-.013-.01-.027-.02-.042-.028-.015-.008-.03-.016-.046-.022-.03-.01-.107-.02-.108-.02H13.54c-.011 0-.035 0-.045.002-.031.007-.047.01-.076.021-.038.017-.073.04-.102.07L9.275 8.546c-.446.445-.485 1.15-.092 1.642l4.098 4.567.02.019.013.014c.026.023.054.043.086.058l.018.006c.034.013.07.021.108.022h1.349l.009-.002c.033 0 .065-.008.096-.019.013-.005.025-.01.037-.017.02-.01.04-.023.057-.038.01-.008.021-.016.03-.026.022-.023.04-.049.055-.078l.001-.005c.005-.01.007-.02.01-.03.01-.028.015-.055.017-.083v-.03c-.001-.067-.023-.134-.067-.188l-4.357-4.99 4.317-3.846c.028-.027.047-.059.063-.093M8.044 5.285c0-.174-.141-.315-.315-.315h-1.15-.003c-.039 0-.075.01-.11.022-.01.004-.02.01-.029.015-.024.012-.046.026-.065.044l-.025.022c-.023.025-.042.053-.056.084l-.004.006v.001c-.016.038-.026.08-.026.124v9.27c0 .044.01.085.026.124.047.113.16.193.29.193H7.73c.174 0 .315-.141.315-.315V5.287v-.003M33.323 11.731l.014-.058.01-.062c.14-.81.027-1.614.023-1.64-.183-1.518-1.338-2.46-3.014-2.46h-2.862-.001c-.087 0-.167.035-.224.093-.057.057-.093.136-.093.224v1.13c0 .045.01.087.026.125.031.075.092.136.167.168.039.016.08.025.125.025h2.668c1.06 0 1.598.48 1.599 1.407v.032c0 .948-.538 1.428-1.599 1.428h-2.668c-.016 0-.03.007-.045.01-.026.003-.052.005-.077.015-.033.013-.061.035-.088.058l-.015.01c-.005.005-.006.011-.01.017-.024.026-.045.054-.058.086-.01.023-.011.047-.015.071-.003.017-.01.033-.01.051v1.132c0 .175.141.316.315.316h2.901c1.55 0 2.652-.84 2.931-2.178" transform="rotate(1 -1118.387 879.415)"/>
                    </g>
                </g>
                <g filter="url(#cob0y1znje)" transform="rotate(-15 413.078 -312.67)">
                    <rect width="80" height="60" fill="#FFF" stroke="#F5841F" stroke-opacity=".5" rx="4"/>
                    <rect width="20" height="10" x="66" y="25" fill="#FCDABB" rx="5"/>
                    <g fill-rule="nonzero">
                        <path fill="#E17726" stroke="#E17726" d="M30.078 0L17.717 9.111 20.016 3.742z" transform="translate(24 15)"/>
                        <g fill="#E27625" stroke="#E27625">
                            <path d="M1.565 0L13.817 9.196 11.628 3.742zM25.628 21.125L22.339 26.13 29.381 28.062 31.399 21.234zM.257 21.234L2.262 28.062 9.293 26.13 6.016 21.125z" transform="translate(24 15)"/>
                            <path d="M8.914 12.67L6.957 15.61 13.927 15.926 13.694 8.455zM22.73 12.67L17.876 8.37 17.717 15.926 24.686 15.61zM9.293 26.13L13.511 24.101 9.879 21.283zM18.133 24.101L22.339 26.13 21.764 21.283z" transform="translate(24 15)"/>
                        </g>
                        <path fill="#D5BFB2" stroke="#D5BFB2" d="M22.339 26.13L18.133 24.101 18.475 26.823 18.438 27.977zM9.292 26.13L13.205 27.977 13.181 26.823 13.511 24.101z" transform="translate(24 15)"/>
                        <path fill="#233447" stroke="#233447" d="M13.278 19.485L9.782 18.465 12.251 17.335zM18.365 19.485L19.392 17.335 21.874 18.465z" transform="translate(24 15)"/>
                        <path fill="#CC6228" stroke="#CC6228" d="M9.293 26.13L9.904 21.125 6.016 21.235zM21.739 21.125L22.339 26.13 25.628 21.235zM24.686 15.61L17.717 15.926 18.365 19.485 19.392 17.335 21.874 18.465zM9.782 18.465L12.251 17.335 13.278 19.485 13.926 15.926 6.957 15.61z" transform="translate(24 15)"/>
                        <path fill="#E27525" stroke="#E27525" d="M6.957 15.61L9.879 21.283 9.782 18.465zM21.874 18.465L21.764 21.283 24.686 15.61zM13.927 15.926L13.278 19.485 14.098 23.688 14.281 18.149zM17.717 15.926L17.374 18.137 17.546 23.688 18.365 19.485z" transform="translate(24 15)"/>
                        <path fill="#F5841F" stroke="#F5841F" d="M18.365 19.485L17.546 23.688 18.133 24.101 21.764 21.283 21.874 18.465zM9.782 18.465L9.879 21.283 13.511 24.101 14.098 23.688 13.278 19.485z" transform="translate(24 15)"/>
                        <path fill="#C0AC9D" stroke="#C0AC9D" d="M18.438 27.977L18.475 26.823 18.157 26.555 13.486 26.555 13.181 26.823 13.205 27.977 9.292 26.13 10.662 27.248 13.437 29.155 18.194 29.155 20.981 27.248 22.339 26.13z" transform="translate(24 15)"/>
                        <path fill="#161616" stroke="#161616" d="M18.133 24.101L17.546 23.688 14.098 23.688 13.511 24.101 13.181 26.823 13.486 26.555 18.157 26.555 18.475 26.823z" transform="translate(24 15)"/>
                        <path fill="#763E1A" stroke="#763E1A" d="M30.604 9.706L31.643 4.677 30.078 0 18.133 8.807 22.73 12.67 29.222 14.553 30.653 12.889 30.029 12.439 31.02 11.541 30.262 10.957 31.252 10.204zM0 4.677L1.052 9.706.379 10.204 1.382 10.957.624 11.541 1.614 12.439.99 12.889 2.421 14.553 8.914 12.67 13.511 8.807 1.565 0z" transform="translate(24 15)"/>
                        <path fill="#F5841F" stroke="#F5841F" d="M29.222 14.553L22.73 12.67 24.686 15.61 21.764 21.283 25.628 21.234 31.399 21.234zM8.913 12.67L2.421 14.553.257 21.234 6.016 21.234 9.879 21.283 6.957 15.61zM17.717 15.926L18.133 8.807 20.016 3.742 11.628 3.742 13.511 8.807 13.926 15.926 14.085 18.161 14.098 23.688 17.546 23.688 17.558 18.161z" transform="translate(24 15)"/>
                    </g>
                </g>
                <rect width="20" height="10" x="244.299" y="129.107" fill="#E8DCCC" rx="5"/>
                <g fill="#6F6558" fill-rule="nonzero">
                    <path d="M16.229 14.889l10.514 10.333c2.694-2.797 4.169-6.501 4.114-10.333-.02-3.819-1.484-7.497-4.114-10.333L16.229 14.889zM15.429 15.667L5.029 25.778 15.429 30 25.829 25.778zM15.086 14.556L25.829 4 15.886 0 6.057 23.444zM0 14.889c-.001 3.79 1.468 7.44 4.114 10.222L14.514.667 0 14.889z" transform="translate(202.3 119.107)"/>
                </g>
            </g>
        </g>
    </g>
</svg>
