<svg xmlns="http://www.w3.org/2000/svg" xmlns:xlink="http://www.w3.org/1999/xlink" width="464" height="238" viewBox="0 0 464 238">
    <defs>
        <filter id="in4qrsluja" width="125%" height="125%" x="-12.5%" y="-8.9%" filterUnits="objectBoundingBox">
            <feOffset dy="2" in="SourceAlpha" result="shadowOffsetOuter1"/>
            <feGaussianBlur in="shadowOffsetOuter1" result="shadowBlurOuter1" stdDeviation="2"/>
            <feColorMatrix in="shadowBlurOuter1" values="0 0 0 0 0 0 0 0 0 0 0 0 0 0 0 0 0 0 0.1 0"/>
        </filter>
        <circle id="u2k3tz1hdb" cx="231" cy="124" r="28"/>
    </defs>
    <g fill="none" fill-rule="evenodd">
        <g>
            <g transform="translate(-121 -841) translate(121 841)">
                <path fill="#FAFBFC" d="M0 0H464V238H0z"/>
                <circle cx="195" cy="109" r="27" fill="#FFF" stroke="#231F20" stroke-opacity=".3" stroke-width="2"/>
                <circle cx="295" cy="160" r="27" fill="#FFF" stroke="#231F20" stroke-opacity=".3" stroke-width="2"/>
                <circle cx="122" cy="135" r="27" fill="#FFF" stroke="#231F20" stroke-opacity=".3" stroke-width="2"/>
                <circle cx="136" cy="145" r="27" fill="#FFF" stroke="#E66D16" stroke-opacity=".5" stroke-width="2"/>
                <g>
                    <use fill="#000" filter="url(#in4qrsluja)" xlink:href="#u2k3tz1hdb"/>
                    <use fill="#231F20" xlink:href="#u2k3tz1hdb"/>
                </g>
                <g fill="#FFF" fill-rule="nonzero">
                    <path d="M3.722 19.97l5.742.014c.298 0 .578-.14.755-.38l3.97-5.382-3.117-4.216-7.35 9.964zM8.872 0H0l3.553 4.462c.107.134.268.212.44.212h3.135l3.944 5.332 2.882-3.909L9.464.29C9.321.107 9.103 0 8.871 0zM26.199 0h-5.757c-.297 0-.577.141-.753.38l-4.217 5.717-1.925 2.61-.958 1.3 2.85 3.851.268.363 3.981 5.384c.177.239.457.38.754.379l5.757-.015-7.496-9.694c-.026-.033-.026-.08-.002-.113L26.2 0z" transform="translate(217 114)"/>
                </g>
                <circle cx="331" cy="91" r="19" fill="#FFF" stroke="#231F20" stroke-opacity=".5" stroke-width="2"/>
                <g fill="#231F20" fill-rule="nonzero">
                    <path d="M2.233 11.982l3.445.008c.179 0 .347-.084.453-.228l2.382-3.229-1.87-2.53-4.41 5.979z" transform="translate(322.01 85.078)"/>
                    <path d="M5.323 0H0l2.132 2.677c.064.08.16.127.263.127h1.882l2.366 3.2 1.73-2.346L5.677.174C5.593.064 5.462 0 5.323 0zM15.72 0h-3.455c-.178 0-.346.085-.451.228l-2.53 3.43-1.156 1.566-.575.78 1.71 2.31.161.218 2.389 3.23c.106.144.274.229.452.228l3.454-.008-4.497-5.817c-.016-.02-.016-.048-.001-.068L15.719 0z" transform="translate(322.01 85.078)"/>
                </g>
                <g fill="#231F20" fill-rule="nonzero" opacity=".3">
                    <path d="M2.605 13.979l4.02.01c.208 0 .404-.099.528-.266l2.78-3.768-2.183-2.95-5.145 6.974zM6.21 0H0l2.487 3.123c.075.094.188.148.307.149H4.99L7.75 7.004l2.018-2.736L6.624.203C6.525.075 6.373 0 6.211 0zM18.339 0h-4.03c-.208 0-.403.099-.527.266L10.83 4.268 9.483 6.095l-.67.91L10.806 9.7l.188.253 2.787 3.77c.124.167.32.265.528.265l4.029-.01-5.247-6.786c-.018-.024-.018-.056-.001-.08L18.339 0z" transform="rotate(-15 733.263 -1002.693)"/>
                </g>
                <g fill="#231F20" fill-rule="nonzero" opacity=".3">
                    <path d="M2.977 15.976l4.594.011c.238 0 .462-.112.604-.304l3.176-4.306-2.494-3.372-5.88 7.97zM7.098 0H0l2.842 3.57c.086.107.215.169.352.169h2.508l3.155 4.266 2.306-3.127L7.571.232C7.458.086 7.283 0 7.098 0zM20.959 0h-4.606c-.237 0-.46.113-.602.304l-3.373 4.574-1.54 2.088-.767 1.039 2.28 3.082.215.29 3.185 4.307c.141.191.365.304.603.303l4.605-.011-5.997-7.756c-.02-.026-.02-.063 0-.09L20.958 0z" transform="rotate(-15 486.086 -640.31)"/>
                </g>
                <text fill="#E66D16" font-family="MuseoSans-700, Museo Sans" font-size="14" font-weight="500" transform="rotate(15 137 145.5)">
                    <tspan x="127.473" y="150">5%</tspan>
                </text>
                <rect width="2" height="16" x="299" y="45" fill="#FFC133" rx="1"/>
                <rect width="2" height="16" x="137" y="77" fill="#FFC133" rx="1"/>
                <rect width="16" height="2" x="292" y="52" fill="#FFC133" rx="1"/>
                <rect width="16" height="2" x="130" y="84" fill="#FFC133" rx="1"/>
                <circle cx="276" cy="67" r="2" fill="#FFC133"/>
                <circle cx="77" cy="107" r="2" fill="#FFC133"/>
                <circle cx="333" cy="56" r="2" fill="#FFC133"/>
                <circle cx="266" cy="70" r="2" fill="#FFC133"/>
                <circle cx="64" cy="102" r="2" fill="#FFC133"/>
                <circle cx="377" cy="114" r="2" fill="#FFC133"/>
            </g>
        </g>
    </g>
</svg>
