<svg xmlns="http://www.w3.org/2000/svg" xmlns:xlink="http://www.w3.org/1999/xlink" width="464" height="238" viewBox="0 0 464 238">
    <defs>
        <filter id="mv2dh8qp2a" width="117.5%" height="114%" x="-8.8%" y="-5%" filterUnits="objectBoundingBox">
            <feOffset dy="2" in="SourceAlpha" result="shadowOffsetOuter1"/>
            <feGaussianBlur in="shadowOffsetOuter1" result="shadowBlurOuter1" stdDeviation="2"/>
            <feComposite in="shadowBlurOuter1" in2="SourceAlpha" operator="out" result="shadowBlurOuter1"/>
            <feColorMatrix in="shadowBlurOuter1" values="0 0 0 0 0 0 0 0 0 0 0 0 0 0 0 0 0 0 0.2 0"/>
        </filter>
        <filter id="x5f3zyrn1c" width="141.2%" height="126.4%" x="-20.6%" y="-9.4%" filterUnits="objectBoundingBox">
            <feOffset dy="2" in="SourceAlpha" result="shadowOffsetOuter1"/>
            <feGaussianBlur in="shadowOffsetOuter1" result="shadowBlurOuter1" stdDeviation="2"/>
            <feComposite in="shadowBlurOuter1" in2="SourceAlpha" operator="out" result="shadowBlurOuter1"/>
            <feColorMatrix in="shadowBlurOuter1" values="0 0 0 0 0 0 0 0 0 0 0 0 0 0 0 0 0 0 0.1 0"/>
        </filter>
        <filter id="isqs08n6oe" width="141.2%" height="125%" x="-20.6%" y="-8.9%" filterUnits="objectBoundingBox">
            <feOffset dy="2" in="SourceAlpha" result="shadowOffsetOuter1"/>
            <feGaussianBlur in="shadowOffsetOuter1" result="shadowBlurOuter1" stdDeviation="2"/>
            <feComposite in="shadowBlurOuter1" in2="SourceAlpha" operator="out" result="shadowBlurOuter1"/>
            <feColorMatrix in="shadowBlurOuter1" values="0 0 0 0 0 0 0 0 0 0 0 0 0 0 0 0 0 0 0.1 0"/>
        </filter>
        <filter id="z115ln0klg" width="141.2%" height="127.5%" x="-20.6%" y="-9.8%" filterUnits="objectBoundingBox">
            <feOffset dy="2" in="SourceAlpha" result="shadowOffsetOuter1"/>
            <feGaussianBlur in="shadowOffsetOuter1" result="shadowBlurOuter1" stdDeviation="2"/>
            <feComposite in="shadowBlurOuter1" in2="SourceAlpha" operator="out" result="shadowBlurOuter1"/>
            <feColorMatrix in="shadowBlurOuter1" values="0 0 0 0 0 0 0 0 0 0 0 0 0 0 0 0 0 0 0.1 0"/>
        </filter>
        <path id="lppvrthjod" d="M143 134c9.389 0 17 7.611 17 17 0 7.649-5.051 14.117-12 16.253V182c0 2.761-2.239 5-5 5s-5-2.239-5-5v-14.747c-6.948-2.135-12-8.604-12-16.253 0-9.389 7.611-17 17-17z"/>
        <path id="xjec9zevff" d="M298 122c9.389 0 17 7.611 17 17 0 7.649-5.051 14.117-12 16.253V173c0 2.761-2.239 5-5 5s-5-2.239-5-5v-17.747c-6.948-2.135-12-8.604-12-16.253 0-9.389 7.611-17 17-17z"/>
        <path id="rk0l833arh" d="M321 132c9.389 0 17 7.611 17 17 0 7.649-5.051 14.117-12 16.253V178c0 2.761-2.239 5-5 5s-5-2.239-5-5v-12.747c-6.948-2.135-12-8.604-12-16.253 0-9.389 7.611-17 17-17z"/>
        <rect id="zswrh7rhpb" width="80" height="100" x="0" y="0" rx="8"/>
    </defs>
    <g fill="none" fill-rule="evenodd">
        <g>
            <g transform="translate(-121 -321) translate(121 321)">
                <path fill="#FAFBFC" d="M0 0H464V238H0z"/>
                <path fill="#66A1FF" fill-rule="nonzero" d="M122.175 102.57l-4.913 5.03c-.835.855-2.262.25-2.262-.96V84.932c0-2.248 1.78-4.07 3.975-4.07h27.893c2.196 0 3.975 1.822 3.975 4.07V98.5c0 2.248-1.78 4.07-3.975 4.07h-24.693z"/>
                <path fill="#FFB848" fill-rule="nonzero" d="M277.277 86.709l-4.982 5.03c-.847.854-2.295.249-2.295-.96V69.07c0-2.248 1.805-4.07 4.032-4.07h33.77c2.227 0 4.032 1.822 4.032 4.07v13.568c0 2.248-1.805 4.07-4.032 4.07h-30.525z" transform="matrix(-1 0 0 1 581.834 0)"/>
                <path fill="#A166FF" fill-rule="nonzero" d="M142.332 64.709l-4.983 5.03c-.847.854-2.295.249-2.295-.96V47.07c0-2.248 1.806-4.07 4.033-4.07h38.02c2.226 0 4.032 1.822 4.032 4.07v13.568c0 2.248-1.806 4.07-4.033 4.07h-34.774z"/>
                <path fill="#FFF" d="M142.781 49.182H165.963V50.727000000000004H142.781zM278.858 71.871H302.04V73.416H278.858zM142.781 53.818H161.32600000000002V55.363H142.781zM120.781 87.909H142.417V89.45400000000001H120.781zM120.781 92.545H136.23600000000002V94.09H120.781zM283.495 76.507H302.04V78.052H283.495z"/>
                <g>
                    <g transform="translate(180 78)">
                        <g>
                            <use fill="#000" filter="url(#mv2dh8qp2a)" xlink:href="#zswrh7rhpb"/>
                            <rect width="79" height="99" x=".5" y=".5" fill="#FFF" stroke="#00B2E3" stroke-linejoin="square" stroke-opacity=".5" rx="8"/>
                        </g>
                        <rect width="64" height="48" x="8.5" y="8.5" fill="#FAFBFC" stroke="#E8E8E8" rx="4"/>
                        <path fill="#DEE3EB" d="M7.805 65.413H45.805V69.413H7.805zM7.805 73.413H27.805V77.413H7.805z"/>
                    </g>
                    <g fill="#00B2E3">
                        <path d="M9.991 0L6.43 3.561 9.991 7.123 13.553 3.561zM6.43 16.421L9.991 19.982 13.553 16.421 9.991 12.859zM0 9.991L3.561 13.553 7.123 9.991 3.561 6.43zM19.982 9.991L16.421 13.553 12.859 9.991 16.421 6.43z" transform="translate(180 78) translate(31 23)"/>
                    </g>
                </g>
                <path fill="#F69893" d="M234.968 155.989L250.468 139.989 265.968 155.989 265.968 193.989 234.968 193.989z" transform="rotate(-15 250.468 166.989)"/>
                <circle cx="244.735" cy="153.631" r="3.5" fill="#FFF" transform="rotate(-30 244.735 153.631)"/>
                <path fill="#EE4136" d="M227.953 155l12.627-13.034c1.537-1.587 4.07-1.627 5.656-.09l.09.09L258.953 155v39c0 1.657-1.343 3-3 3h-25c-1.657 0-3-1.343-3-3v-39z"/>
                <circle cx="243.453" cy="151.5" r="3.5" fill="#FFF"/>
                <text fill="#FFF" font-family="MuseoSans-700, Museo Sans" font-size="20" font-weight="500">
                    <tspan x="237.953" y="185">$</tspan>
                </text>
                <g transform="rotate(-15 143 160.5)">
                    <use fill="#000" filter="url(#x5f3zyrn1c)" xlink:href="#lppvrthjod"/>
                    <path fill="#FFF" stroke="#6F6558" stroke-linejoin="square" stroke-opacity=".5" d="M143 134.5c-4.556 0-8.681 1.847-11.667 4.833-2.986 2.986-4.833 7.11-4.833 11.667 0 3.666 1.195 7.052 3.217 9.79 2.145 2.905 5.219 5.081 8.783 6.09V182c0 1.243.504 2.368 1.318 3.182.814.814 1.94 1.318 3.182 1.318 1.243 0 2.368-.504 3.182-1.318.814-.814 1.318-1.94 1.318-3.182v-15.121c3.565-1.008 6.639-3.185 8.783-6.089 2.022-2.738 3.217-6.125 3.217-9.79 0-4.556-1.847-8.681-4.833-11.667-2.986-2.986-7.11-4.833-11.667-4.833z"/>
                </g>
                <g>
                    <use fill="#000" filter="url(#isqs08n6oe)" xlink:href="#xjec9zevff"/>
                    <path fill="#FFF" stroke="#00B2E3" stroke-linejoin="square" stroke-opacity=".5" d="M298 122.5c-4.556 0-8.681 1.847-11.667 4.833-2.986 2.986-4.833 7.11-4.833 11.667 0 3.666 1.195 7.052 3.217 9.79 2.145 2.905 5.219 5.081 8.783 6.09V173c0 1.243.504 2.368 1.318 3.182.814.814 1.94 1.318 3.182 1.318 1.243 0 2.368-.504 3.182-1.318.814-.814 1.318-1.94 1.318-3.182v-18.121c3.565-1.008 6.639-3.185 8.783-6.089 2.022-2.738 3.217-6.125 3.217-9.79 0-4.556-1.847-8.681-4.833-11.667-2.986-2.986-7.11-4.833-11.667-4.833z"/>
                </g>
                <g transform="rotate(15 321 157.5)">
                    <use fill="#000" filter="url(#z115ln0klg)" xlink:href="#rk0l833arh"/>
                    <path fill="#FFF" stroke="#00B2E3" stroke-linejoin="square" stroke-opacity=".5" d="M321 132.5c-4.556 0-8.681 1.847-11.667 4.833-2.986 2.986-4.833 7.11-4.833 11.667 0 3.666 1.195 7.052 3.217 9.79 2.145 2.905 5.219 5.081 8.783 6.09V178c0 1.243.504 2.368 1.318 3.182.814.814 1.94 1.318 3.182 1.318 1.243 0 2.368-.504 3.182-1.318.814-.814 1.318-1.94 1.318-3.182v-13.121c3.565-1.008 6.639-3.185 8.783-6.089 2.022-2.738 3.217-6.125 3.217-9.79 0-4.556-1.847-8.681-4.833-11.667-2.986-2.986-7.11-4.833-11.667-4.833z"/>
                </g>
                <g fill-rule="nonzero">
                    <path fill="#8A92B2" d="M5.965.028v.01c.01.047.01.103.01.16v6.796c-.01.038-.039.047-.068.066-.202.095-.394.18-.596.264-.28.123-.568.255-.847.377l-1.01.453c-.279.122-.558.245-.827.367-.328.151-.664.293-.991.443-.28.123-.558.255-.847.377-.231.104-.462.198-.683.302-.02.01-.039.019-.058.019-.01 0-.01 0-.02-.01l.26-.424L1.78 6.806c.53-.867 1.068-1.735 1.597-2.602.49-.801.991-1.602 1.482-2.404.356-.584.721-1.168 1.077-1.753.01-.019.02-.028.02-.047h.01c-.01.01 0 .019 0 .028z" transform="rotate(15 -364.405 1284.331)"/>
                    <path fill="#454A75" d="M11.873 9.653l.01.009-1.415.82-4.445 2.573c-.02.01-.039.02-.048.029-.029 0-.029-.029-.029-.038v-5.91c0-.029 0-.066.01-.095.01-.037.038-.028.067-.018.125.056.26.113.385.17.375.169.75.339 1.125.499.328.141.645.292.972.434.327.14.654.292.982.433.279.123.567.255.846.377.28.123.568.255.847.377.221.094.443.198.664.292 0 .029.01.038.029.048z" transform="rotate(15 -364.405 1284.331)"/>
                    <path fill="#8A92B2" d="M5.965 18.938c0 .009-.01.018-.01.028h-.009c0-.02-.02-.028-.029-.047-.596-.82-1.193-1.65-1.79-2.47L2.3 13.923c-.586-.811-1.183-1.631-1.77-2.442-.154-.217-.308-.424-.462-.64-.01-.02-.019-.029-.038-.057.029 0 .048.019.058.028.837.48 1.664.961 2.501 1.442.962.556 1.915 1.113 2.877 1.669l.49.282c.02.02.02.038.02.057v4.544c0 .047 0 .094-.01.132z" transform="rotate(15 -364.405 1284.331)"/>
                    <path fill="gray" d="M0.058 9.653L0.116 9.653 0.116 9.711 0 9.711 0 9.653z" transform="rotate(15 -364.405 1284.331)"/>
                    <path fill="#FFF" d="M6.014.125c-.058 0-.058-.058-.058-.116h.058v.116z" transform="rotate(15 -364.405 1284.331)"/>
                    <path fill="#62688F" d="M.02 9.671v-.009c.307-.132.605-.273.913-.405.395-.18.79-.35 1.184-.528.298-.132.606-.274.904-.406.443-.197.876-.386 1.318-.584.298-.132.597-.264.905-.405.211-.095.433-.189.644-.283.02-.01.048-.019.058-.038.01 0 .01.01 0 .019v5.986c0 .028-.01.056.01.075-.02.028-.039 0-.049-.01-.086-.046-.173-.094-.26-.15C3.792 11.858 1.925 10.774.068 9.7.057 9.69.038 9.68.02 9.67zm11.833 1.113h.01c0 .019-.02.037-.029.056-1.77 2.442-3.54 4.893-5.31 7.334-.184.254-.376.509-.559.764-.01-.01-.01-.02-.01-.029v-4.713c.405-.236.8-.462 1.203-.697 1.559-.905 3.118-1.8 4.667-2.706.01.01.019 0 .028-.01z" transform="rotate(15 -364.405 1284.331)"/>
                    <path fill="#62688F" d="M5.956 7.032V.113c0-.028-.01-.047.01-.075 1.952 3.176 3.905 6.344 5.849 9.52.02.029.048.066.058.104-.135-.047-.26-.113-.385-.17-.154-.066-.318-.141-.472-.207-.096-.047-.202-.085-.298-.132-.163-.075-.327-.141-.49-.217-.097-.038-.193-.085-.29-.132l-.634-.283c-.106-.047-.212-.094-.327-.141l-.462-.198c-.096-.038-.193-.085-.289-.132l-.635-.283c-.106-.047-.211-.094-.327-.141l-.462-.198c-.106-.047-.202-.094-.308-.141-.182-.085-.365-.17-.558-.246.03-.009.02-.009.02-.009z" transform="rotate(15 -364.405 1284.331)"/>
                </g>
                <g fill="#6F6558" fill-rule="nonzero">
                    <path d="M8.078 7.623l5.234 5.29c1.341-1.432 2.075-3.328 2.048-5.29-.01-1.955-.739-3.838-2.048-5.29l-5.234 5.29zM7.68 8.021L2.503 13.198 7.68 15.36 12.857 13.198zM7.509 7.452L12.857 2.048 7.908 0 3.015 12.004zM0 7.623c0 1.94.73 3.81 2.048 5.234L7.225.34 0 7.623z" transform="rotate(-15 618.596 -423.713)"/>
                </g>
                <g fill="#46A868">
                    <path d="M13.218 0L1.579 0 1.579 2.81 5.993 2.81 5.993 6.94 8.803 6.94 8.803 2.81 13.218 2.81z" transform="translate(290 133)"/>
                    <path d="M7.425 7.38C3.773 7.38.812 6.802.812 6.089s2.96-1.291 6.613-1.291c3.652 0 6.612.578 6.612 1.29 0 .714-2.96 1.292-6.612 1.292m7.424-1.076c0-.92-3.324-1.665-7.424-1.665C3.325 4.64 0 5.385 0 6.304c0 .81 2.578 1.484 5.993 1.634v5.928h2.81V7.94c3.442-.145 6.046-.822 6.046-1.636" transform="translate(290 133)"/>
                </g>
            </g>
        </g>
    </g>
</svg>
