<svg xmlns="http://www.w3.org/2000/svg" width="18" height="17" viewBox="0 0 18 17">
    <g fill="none" fill-rule="evenodd">
        <g fill-rule="nonzero">
            <g>
                <g>
                    <g>
                        <path fill="#E17726" stroke="#E17726" d="M15.05 0L8.865 4.555 10.015 1.871z" transform="translate(-1235 -45) translate(1235.858 46)"/>
                        <g fill="#E27625" stroke="#E27625">
                            <path d="M.783 0L6.913 4.598 5.818 1.871zM12.823 10.563L11.177 13.065 14.701 14.031 15.71 10.617zM.128 10.617L1.132 14.031 4.649 13.065 3.01 10.563z" transform="translate(-1235 -45) translate(1235.858 46)"/>
                            <path d="M4.46 6.335L3.481 7.805 6.968 7.963 6.852 4.227zM11.373 6.335L8.944 4.185 8.865 7.963 12.352 7.805zM4.649 13.065L6.76 12.051 4.943 10.642zM9.073 12.051L11.177 13.065 10.89 10.642z" transform="translate(-1235 -45) translate(1235.858 46)"/>
                        </g>
                        <path fill="#D5BFB2" stroke="#D5BFB2" d="M11.177 13.065L9.073 12.051 9.244 13.411 9.226 13.988zM4.649 13.065L6.607 13.988 6.595 13.411 6.76 12.051z" transform="translate(-1235 -45) translate(1235.858 46)"/>
                        <path fill="#233447" stroke="#233447" d="M6.644 9.743L4.894 9.232 6.13 8.668zM9.189 9.743L9.703 8.668 10.945 9.232z" transform="translate(-1235 -45) translate(1235.858 46)"/>
                        <path fill="#CC6228" stroke="#CC6228" d="M4.649 13.065L4.955 10.563 3.01 10.617zM10.877 10.563L11.177 13.065 12.823 10.617zM12.352 7.805L8.865 7.963 9.189 9.743 9.703 8.668 10.945 9.232zM4.894 9.232L6.13 8.668 6.644 9.743 6.968 7.963 3.481 7.805z" transform="translate(-1235 -45) translate(1235.858 46)"/>
                        <path fill="#E27525" stroke="#E27525" d="M3.481 7.805L4.943 10.642 4.894 9.232zM10.945 9.232L10.89 10.642 12.352 7.805zM6.968 7.963L6.644 9.743 7.054 11.844 7.146 9.074zM8.865 7.963L8.693 9.068 8.779 11.844 9.189 9.743z" transform="translate(-1235 -45) translate(1235.858 46)"/>
                        <path fill="#F5841F" stroke="#F5841F" d="M9.189 9.743L8.779 11.844 9.073 12.051 10.89 10.642 10.945 9.232zM4.894 9.232L4.943 10.642 6.76 12.051 7.054 11.844 6.644 9.743z" transform="translate(-1235 -45) translate(1235.858 46)"/>
                        <path fill="#C0AC9D" stroke="#C0AC9D" d="M9.226 13.988L9.244 13.411 9.085 13.278 6.748 13.278 6.595 13.411 6.607 13.988 4.649 13.065 5.335 13.624 6.723 14.577 9.103 14.577 10.498 13.624 11.177 13.065z" transform="translate(-1235 -45) translate(1235.858 46)"/>
                        <path fill="#161616" stroke="#161616" d="M9.073 12.051L8.779 11.844 7.054 11.844 6.76 12.051 6.595 13.411 6.748 13.278 9.085 13.278 9.244 13.411z" transform="translate(-1235 -45) translate(1235.858 46)"/>
                        <path fill="#763E1A" stroke="#763E1A" d="M15.313 4.853L15.833 2.338 15.05 0 9.073 4.404 11.373 6.335 14.621 7.277 15.337 6.444 15.025 6.22 15.521 5.77 15.141 5.479 15.637 5.102zM0 2.338L.526 4.853.19 5.102.691 5.479.312 5.77.808 6.22.496 6.444 1.211 7.277 4.46 6.335 6.76 4.404.783 0z" transform="translate(-1235 -45) translate(1235.858 46)"/>
                        <path fill="#F5841F" stroke="#F5841F" d="M14.621 7.277L11.373 6.335 12.352 7.805 10.89 10.642 12.823 10.617 15.71 10.617zM4.46 6.335L1.211 7.277.128 10.617 3.01 10.617 4.943 10.642 3.481 7.805zM8.865 7.963L9.073 4.404 10.015 1.871 5.818 1.871 6.76 4.404 6.968 7.963 7.048 9.081 7.054 11.844 8.779 11.844 8.785 9.081z" transform="translate(-1235 -45) translate(1235.858 46)"/>
                    </g>
                </g>
            </g>
        </g>
    </g>
</svg>
